<svg width="208" height="204" viewBox="0 0 208 204" fill="none" xmlns="http://www.w3.org/2000/svg">
<path d="M208 104.446C208 97.5573 207.307 90.4463 206.151 83.7798H106.052V123.112H163.383C161.071 135.779 153.443 146.89 142.115 154.001L176.329 179.556C196.441 161.556 208 135.334 208 104.446Z" fill="#4280EF"/>
<path d="M106.052 204C134.718 204 158.76 194.889 176.329 179.334L142.115 154.001C132.637 160.223 120.385 163.779 106.052 163.779C78.3109 163.779 54.9621 145.779 46.4087 121.779L11.27 147.779C29.3017 182.223 65.8274 204 106.052 204Z" fill="#34A353"/>
<path d="M46.4084 121.557C42.0161 108.891 42.0161 95.1132 46.4084 82.4468L11.2698 56.2251C-3.7566 85.1134 -3.7566 119.113 11.2698 147.779L46.4084 121.557Z" fill="#F6B704"/>
<path d="M106.052 40.4475C121.078 40.2253 135.874 45.7808 146.739 55.7806L177.023 26.4478C157.835 9.11481 132.406 -0.21834 106.052 0.00387834C65.8274 0.00387834 29.3017 21.7812 11.27 56.225L46.4087 82.4467C54.9621 58.225 78.3109 40.4475 106.052 40.4475Z" fill="#E54335"/>
</svg>
