<svg width="512" height="512" viewBox="0 0 512 512" fill="none" xmlns="http://www.w3.org/2000/svg">
<path d="M386.588 318.061H352.972C343.704 318.061 336.164 310.521 336.164 301.253V267.637C336.164 258.369 343.704 250.829 352.972 250.829H386.588C395.856 250.829 403.396 258.369 403.396 267.637V301.253C403.396 310.52 395.854 318.061 386.588 318.061ZM352.971 261.172C349.408 261.172 346.506 264.073 346.506 267.637V301.253C346.506 304.816 349.407 307.718 352.971 307.718H386.587C390.15 307.718 393.052 304.817 393.052 301.253V267.637C393.052 264.074 390.151 261.172 386.587 261.172H352.971Z" fill="#804000"/>
<path d="M386.588 250.828H369.78V261.171H386.588C390.151 261.171 393.053 264.072 393.053 267.636V301.252C393.053 304.815 390.152 307.717 386.588 307.717H369.78V318.06H386.588C395.856 318.06 403.396 310.52 403.396 301.252V267.636C403.396 258.369 395.854 250.828 386.588 250.828Z" fill="#57442F"/>
<path d="M439.022 398.222H300.534C291.647 398.222 284.445 391.018 284.445 382.133V284.444H455.112V382.133C455.113 391.018 447.909 398.222 439.022 398.222Z" fill="#B97850"/>
<path d="M369.78 284.444V398.222H439.024C447.911 398.222 455.113 391.018 455.113 382.133V284.444H369.78V284.444Z" fill="#935635"/>
<path d="M284.446 284.444V382.133C284.446 391.02 291.65 398.222 300.535 398.222H369.779V284.444H284.446Z" fill="#B97850"/>
<path d="M455.111 284.444H284.444V341.333H455.111V284.444Z" fill="#935635"/>
<path d="M455.111 284.444H369.778V341.333H455.111V284.444Z" fill="#804000"/>
<path d="M281.09 319.538V291.716H230.914V319.538C230.914 321.758 229.114 323.558 226.894 323.558H192.318V419.569H319.689V323.558H285.113C282.889 323.558 281.09 321.758 281.09 319.538Z" fill="#FED8B2"/>
<path d="M319.686 323.558H285.11C282.89 323.558 281.09 321.758 281.09 319.538V291.716H254.278V419.569H319.686V323.558V323.558Z" fill="#EABE96"/>
<path d="M172.597 253.469C183.671 253.469 192.649 244.491 192.649 233.417C192.649 222.343 183.671 213.365 172.597 213.365C161.523 213.365 152.545 222.343 152.545 233.417C152.545 244.491 161.523 253.469 172.597 253.469Z" fill="#FED8B2"/>
<path d="M335.127 253.469C346.202 253.469 355.179 244.491 355.179 233.417C355.179 222.343 346.202 213.365 335.127 213.365C324.053 213.365 315.075 222.343 315.075 233.417C315.075 244.491 324.053 253.469 335.127 253.469Z" fill="#EABE96"/>
<path d="M256.122 316.926H251.604C209.808 316.926 175.926 283.044 175.926 241.248V172.152C175.926 130.356 209.808 96.4741 251.604 96.4741H256.122C297.918 96.4741 331.8 130.356 331.8 172.152V241.248C331.8 283.045 297.918 316.926 256.122 316.926Z" fill="#F4E3C3"/>
<path d="M256.122 96.4751H254.277V316.926H256.122C297.918 316.926 331.8 283.044 331.8 241.248V172.152C331.8 130.357 297.918 96.4751 256.122 96.4751Z" fill="#FED8B2"/>
<path d="M323.593 122.051C308.731 100.88 284.148 87.0281 256.316 87.0281H251.41C206.032 87.0281 169.245 123.814 169.245 169.193V175.547V233.424H181.307V199.482C181.305 199.482 181.302 199.482 181.3 199.482C217.905 195.764 253.897 188.583 285.445 172.811C296.797 185.847 309.907 197.489 324.379 206.932V233.423H338.481V190.155V169.192C338.48 151.645 332.964 135.397 323.593 122.051Z" fill="#324A5E"/>
<path d="M323.593 122.049C308.731 100.878 284.148 87.0259 256.316 87.0259H254.277V185.358C265.029 181.926 275.46 177.799 285.443 172.808C296.795 185.844 309.905 197.486 324.377 206.929V233.42H338.479V190.152V169.189C338.48 151.645 332.964 135.397 323.593 122.049Z" fill="#2B3B4E"/>
<path d="M217.126 232.315C221.431 232.315 224.92 228.826 224.92 224.521C224.92 220.217 221.431 216.727 217.126 216.727C212.822 216.727 209.332 220.217 209.332 224.521C209.332 228.826 212.822 232.315 217.126 232.315Z" fill="#59595B"/>
<path d="M290.599 232.315C294.904 232.315 298.393 228.826 298.393 224.521C298.393 220.217 294.904 216.727 290.599 216.727C286.295 216.727 282.805 220.217 282.805 224.521C282.805 228.826 286.295 232.315 290.599 232.315Z" fill="#272525"/>
<path d="M253.862 288.39C239.819 288.39 228.398 276.967 228.398 262.926C228.398 260.545 230.327 258.616 232.708 258.616C235.089 258.616 237.018 260.545 237.018 262.926C237.018 272.214 244.576 279.77 253.862 279.77C263.149 279.77 270.706 272.212 270.706 262.926C270.706 260.545 272.635 258.616 275.016 258.616C277.397 258.616 279.326 260.545 279.326 262.926C279.328 276.968 267.905 288.39 253.862 288.39Z" fill="#FD8469"/>
<path d="M279.328 262.927C279.328 260.546 277.399 258.617 275.018 258.617C272.637 258.617 270.708 260.546 270.708 262.927C270.708 272.076 263.373 279.528 254.277 279.751V288.371C268.128 288.146 279.328 276.828 279.328 262.927Z" fill="#FC6F58"/>
<path d="M213.544 323.558H186.848C154.695 323.558 128.63 349.623 128.63 381.776V476.851C165.587 498.569 208.474 511.255 254.279 511.934V365.971C231.629 365.066 213.544 346.429 213.544 323.558Z" fill="#31BAFD"/>
<path d="M325.154 323.558H298.458C298.458 347.007 279.448 366.014 256.002 366.014C255.424 366.014 254.85 365.993 254.278 365.971V511.934C255.566 511.953 256.847 512 258.138 512C303.634 512 346.349 500.117 383.373 479.308V381.776C383.372 349.624 357.307 323.558 325.154 323.558Z" fill="#2B9ED8"/>
<path d="M234.677 511.109C241.709 511.69 248.818 512 256 512C263.184 512 270.293 511.69 277.325 511.109L262.628 373.7H249.373L234.677 511.109Z" fill="#324A5E"/>
<path d="M277.325 511.109L262.628 373.7H254.277V511.981C254.851 511.984 255.423 512 255.999 512C263.184 512 270.293 511.69 277.325 511.109Z" fill="#2B3B4E"/>
<path d="M273.241 352.539H238.763L249.341 375.486H262.661L273.241 352.539Z" fill="#2B3B4E"/>
<path d="M273.241 352.539H254.278V375.486H262.661L273.241 352.539Z" fill="#1C2A38"/>
<path d="M227.557 323.558L256 352.539L227.557 380.983L199.113 323.558H227.557Z" fill="#2B9ED8"/>
<path d="M284.444 323.558L256.002 352.539L284.444 380.983L312.889 323.558H284.444Z" fill="#208EBA"/>
</svg>
