<?xml version="1.0" encoding="iso-8859-1"?>
<!-- Generator: Adobe Illustrator 19.0.0, SVG Export Plug-In . SVG Version: 6.00 Build 0)  -->
<svg version="1.1" id="Layer_1" xmlns="http://www.w3.org/2000/svg" xmlns:xlink="http://www.w3.org/1999/xlink" x="0px" y="0px"
	 viewBox="0 0 512.001 512.001" style="enable-background:new 0 0 512.001 512.001;" xml:space="preserve">
<path style="fill:#EDDFD6;" d="M346.068,377.959l49.673-81.406c6.037-9.878,16.611-15.415,27.49-15.415
	c5.061,0,10.196,1.208,14.964,3.72c12.318,6.488,18.671,19.818,16.867,32.843"/>
<polygon style="fill:#CFDCE5;" points="383.505,151.97 382.847,152.617 382.847,392.924 172.828,392.924 172.828,152.617 
	172.181,151.97 277.843,46.32 "/>
<polyline style="fill:#FF6F52;" points="372.016,140.494 372.016,55.624 323.193,55.624 323.193,91.67 "/>
<polygon style="fill:#BAC6CC;" points="382.847,158.979 382.847,184.404 277.843,79.389 172.828,184.404 172.828,158.991 
	277.843,53.976 "/>
<polygon style="fill:#415E72;" points="426.35,207.534 277.839,59.023 129.327,207.534 116.619,194.826 277.839,33.607 
	439.057,194.826 "/>
<rect x="243.541" y="191.651" style="fill:#FCD577;" width="68.592" height="96.52"/>
<path style="fill:#BAC6CC;" d="M318.123,294.161h-80.569V185.656h80.569V294.161z M249.536,282.18h56.606v-84.543h-56.606V282.18z"
	/>
<path style="fill:#F9EADE;" d="M497.015,367.949L341.116,466.47c-15.671,9.896-34.386,13.826-52.705,11.059l-184.127-27.82
	c-9.465-1.426-19.146,0.695-27.149,5.955l-15.54,10.22l-43.528-85.318L0,345.149c13.215-8.147,25.436-17.72,36.435-28.539
	c10.999-10.807,20.787-22.86,29.15-35.944c14.689-22.98,40.161-37.13,67.43-36.626c6.206,0.12,12.424,0.779,18.571,2.013
	l26.922,5.392v0.012l137.376,27.533c12.688,2.552,21.362,13.682,21.362,26.035c0,2.121-0.264,4.277-0.791,6.422
	c-3.439,13.838-16.905,22.728-30.971,20.44L202.566,315.16c-1.366-0.216-2.708-0.323-4.05-0.323
	c-12.676,0-23.651,9.669-24.837,22.728c-1.186,13,7.836,24.705,20.703,26.886l118.542,20.08c10.531,1.785,21.362-0.06,30.72-5.224
	l120.626-66.699c4.924-2.72,10.256-4.014,15.54-4.014c10.651,0,21.027,5.296,27.137,14.869
	C516.532,338.487,512.075,358.436,497.015,367.949z"/>
<path style="fill:#EDDFD6;" d="M178.508,251.444v0.012c0,0-63.512-0.503-101.253,65.98c-14.258,25.125-36.734,46.391-59.187,63.129
	L0,345.149c13.215-8.147,25.436-17.72,36.435-28.539c10.999-10.807,20.787-22.86,29.15-35.944
	c14.689-22.98,40.161-37.13,67.43-36.626c6.206,0.12,12.424,0.779,18.571,2.013L178.508,251.444z"/>
<g>
</g>
<g>
</g>
<g>
</g>
<g>
</g>
<g>
</g>
<g>
</g>
<g>
</g>
<g>
</g>
<g>
</g>
<g>
</g>
<g>
</g>
<g>
</g>
<g>
</g>
<g>
</g>
<g>
</g>
</svg>
