<svg width="247" height="201" viewBox="0 0 247 201" fill="none" xmlns="http://www.w3.org/2000/svg">
<path d="M220.95 50.2899C221.1 52.4599 221.1 54.6299 221.1 56.8199C221.1 123.55 170.3 200.51 77.41 200.51V200.47C49.97 200.51 23.1 192.65 0 177.83C3.99 178.31 8 178.55 12.02 178.56C34.76 178.58 56.85 170.95 74.74 156.9C53.13 156.49 34.18 142.4 27.56 121.83C35.13 123.29 42.93 122.99 50.36 120.96C26.8 116.2 9.85 95.4999 9.85 71.4599C9.85 71.2399 9.85 71.0299 9.85 70.8199C16.87 74.7299 24.73 76.8999 32.77 77.1399C10.58 62.3099 3.74 32.7899 17.14 9.70994C42.78 41.2599 80.61 60.4399 121.22 62.4699C117.15 44.9299 122.71 26.5499 135.83 14.2199C156.17 -4.90006 188.16 -3.92006 207.28 16.4099C218.59 14.1799 229.43 10.0299 239.35 4.14994C235.58 15.8399 227.69 25.7699 217.15 32.0799C227.16 30.8999 236.94 28.2199 246.15 24.1299C239.37 34.2899 230.83 43.1399 220.95 50.2899Z" fill="white"/>
</svg>
